<?xml version="1.0" encoding="UTF-8"?>
<svg version="1.1" xmlns="http://www.w3.org/2000/svg" width="1320" height="1000">
<path d="M0 0 C435.6 0 871.2 0 1320 0 C1320 330 1320 660 1320 1000 C884.4 1000 448.8 1000 0 1000 C0 670 0 340 0 0 Z " fill="#FEFEFE" transform="translate(0,0)"/>
<path d="M0 0 C6.17058157 -0.12475515 12.34040915 -0.2148795 18.51196289 -0.2746582 C20.60584319 -0.29961026 22.69963814 -0.33358455 24.79321289 -0.37719727 C42.14571668 -0.72930107 55.59174067 0.70730785 69 13 C71.6922672 16.15351224 73.90187546 19.42860222 76 23 C76.40992188 23.66902344 76.81984375 24.33804687 77.2421875 25.02734375 C83.3001295 35.83878039 83.42222332 49.405887 80.375 61.125 C76.33526786 73.98127035 69.31134065 83.0423284 57.62109375 89.71484375 C48.86523709 94.0079538 39.76965615 95.15727533 30.13671875 95.1328125 C29.3041304 95.13376923 28.47154205 95.13472595 27.61372375 95.13571167 C25.86479618 95.13638908 24.11586603 95.13456554 22.36694336 95.13037109 C19.67881722 95.12498259 16.99085559 95.13034821 14.30273438 95.13671875 C12.60156213 95.13605856 10.90038999 95.13477861 9.19921875 95.1328125 C8.39199875 95.13483673 7.58477875 95.13686096 6.75309753 95.13894653 C1.11497358 95.11497358 1.11497358 95.11497358 0 94 C-0.09525367 91.07805335 -0.12552736 88.17979671 -0.11352539 85.25756836 C-0.11367142 84.3405867 -0.11381744 83.42360504 -0.1139679 82.47883606 C-0.1132684 79.43248164 -0.10547428 76.38618755 -0.09765625 73.33984375 C-0.0957922 71.23377007 -0.09436824 69.12769597 -0.09336853 67.0216217 C-0.08954231 61.46657117 -0.07971114 55.91154659 -0.06866455 50.35650635 C-0.05845267 44.6927526 -0.05387139 39.02899467 -0.04882812 33.36523438 C-0.03808896 22.24347815 -0.0210113 11.12174123 0 0 Z " fill="#F08B5F" transform="translate(639,454)"/>
<path d="M0 0 C4.27069964 -0.08824695 8.54115989 -0.14080654 12.8125 -0.1875 C14.00810547 -0.21263672 15.20371094 -0.23777344 16.43554688 -0.26367188 C26.62387002 -0.34695517 35.26964073 1.23514323 44.375 5.9375 C45.33148438 6.42089844 46.28796875 6.90429688 47.2734375 7.40234375 C54.28773854 11.51244278 59.12840846 16.43502085 61.4453125 24.296875 C63.87053334 36.11555682 61.50962028 45.01003748 55 55 C51.74569154 59.7749562 48.35210082 64.44012452 44.890625 69.06640625 C39.97066657 75.17125289 39.97066657 75.17125289 39.1875 82.625 C39.28417969 83.38039063 39.38085938 84.13578125 39.48046875 84.9140625 C39.9464955 87.2850068 39.9464955 87.2850068 42 90 C38.68593639 89.10430713 37.28173636 88.42260453 35.3515625 85.52734375 C33.59615416 80.94603239 33.59196605 77.04734741 33.6875 72.1875 C33.70006836 70.7957959 33.70006836 70.7957959 33.71289062 69.37597656 C33.82380372 62.90530671 34.41580559 56.59694215 35.27685547 50.18994141 C36.76607243 38.69974449 38.25062621 24.98624658 31.60546875 14.87890625 C28.96832032 11.56077266 27.27519218 9.74792779 23 9 C23.763125 9.804375 24.52625 10.60875 25.3125 11.4375 C31.27238461 18.69040857 31.4609443 27.0960126 31.3125 36.125 C31.29993164 37.78813232 31.29993164 37.78813232 31.28710938 39.48486328 C31.18351997 46.57762984 30.56453943 53.31840162 29.453125 60.3203125 C27.86874066 73.18660601 26.91485559 89.31666001 34.65234375 100.34765625 C38.51673455 105.0857354 42.23460502 106.64343648 48 108 C47.67 108.66 47.34 109.32 47 110 C35.91702878 113.43954279 22.76024298 113.64423861 12 109 C5.92933624 105.59492514 1.39572261 102.19397955 -2 96 C-4.4982249 82.27598528 1.04449316 69.46791155 7.91796875 57.859375 C9.57053231 55.0195907 10.76295929 52.04105842 12 49 C12.60521484 47.63875 12.60521484 47.63875 13.22265625 46.25 C17.23664416 37.0751705 21.51141735 25.9052569 18.3125 15.8359375 C15.8210252 10.29240608 12.37599058 6.3702875 6.61328125 4.03125 C4.42171718 3.28811367 2.23187291 2.61004526 0 2 C0 1.34 0 0.68 0 0 Z " fill="#F08B5F" transform="translate(273,467)"/>
<path d="M0 0 C3.96 0 7.92 0 12 0 C14.62699753 2.62699753 14.2406052 4.50026553 14.25994873 8.07617188 C14.25432922 8.92767822 14.24870972 9.77918457 14.24291992 10.65649414 C14.24481827 11.55250839 14.24671661 12.44852264 14.24867249 13.37168884 C14.25238698 16.34293274 14.24166727 19.31393396 14.23046875 22.28515625 C14.22927731 24.34256461 14.22882371 26.39997352 14.2290802 28.4573822 C14.22751422 32.77248532 14.21921519 37.08750561 14.20581055 41.40258789 C14.1888099 46.94693512 14.18499644 52.49119132 14.18575573 58.03556156 C14.18548444 62.28446835 14.18001006 66.53335505 14.17275429 70.78225517 C14.16956168 72.82729375 14.16759884 74.87233462 14.16686058 76.91737556 C14.16470386 79.76925704 14.15597451 82.62103993 14.14526367 85.47290039 C14.14571686 86.32643097 14.14617004 87.17996155 14.14663696 88.05935669 C14.1144742 93.8855258 14.1144742 93.8855258 13 95 C5.88888889 95.59259259 5.88888889 95.59259259 2 93 C1.01 92.01 1.01 92.01 0 91 C-0.99 91.66 -1.98 92.32 -3 93 C-9.92199131 96.46099566 -19.14818376 96.18156864 -26.56640625 94.375 C-33.72566176 91.23669622 -39.47416542 84.03333645 -42.3359375 76.87890625 C-44.47120939 67.62187457 -44.74797069 56.40293087 -39.6796875 48.11328125 C-34.12131636 41.12007477 -27.87582246 35.87510468 -18.8515625 34.7265625 C-12.30517419 34.42795531 -5.85365834 36.07317083 0 39 C0 26.13 0 13.26 0 0 Z " fill="#F08C60" transform="translate(907,454)"/>
<path d="M0 0 C36.7495183 0 36.7495183 0 47 10 C54.4884753 19.20058397 55.94849119 28.31424045 55.24267578 39.890625 C54.31424214 47.96071221 50.08216482 55.66200594 44 61 C30.29788201 71.3976571 18.32545995 69 0 69 C0 46.23 0 23.46 0 0 Z " fill="#FEFEFD" transform="translate(652,467)"/>
<path d="M0 0 C1.50098778 0.88048139 2.98406266 1.79306129 4.4375 2.75 C5.365625 3.348125 6.29375 3.94625 7.25 4.5625 C12.77671808 10.08921808 15.57264904 15.94013441 15.6875 23.75 C15.71328125 24.801875 15.7390625 25.85375 15.765625 26.9375 C15.4375 29.75 15.4375 29.75 14.16777039 31.39875793 C12.08064389 33.02868419 11.04767975 33.14100663 8.42504883 33.18237305 C7.2241436 33.21206429 7.2241436 33.21206429 5.99897766 33.24235535 C5.13951035 33.24874527 4.28004303 33.25513519 3.39453125 33.26171875 C2.5109343 33.27966995 1.62733734 33.29762115 0.71696472 33.31611633 C-2.1053083 33.37029996 -4.92741144 33.40414061 -7.75 33.4375 C-9.66343514 33.47066599 -11.57684784 33.50515498 -13.49023438 33.54101562 C-18.18086715 33.62603099 -22.87144884 33.69280362 -27.5625 33.75 C-25.04629303 38.93399793 -23.16502435 41.39399266 -18.5625 44.75 C-12.27182519 46.8468916 -5.70746773 46.60027029 0.3125 43.8125 C1.03050781 43.44769531 1.74851562 43.08289063 2.48828125 42.70703125 C4.76028071 41.59152049 6.93208667 41.07327914 9.4375 40.75 C11.0625 42.4375 11.0625 42.4375 12.4375 44.75 C11.91531917 48.71857431 9.74051076 50.54625501 6.75 52.9375 C-0.96869907 58.7999989 -10.32275057 58.36330219 -19.5625 57.75 C-27.23616201 56.50595528 -33.30948423 50.96517537 -37.94921875 44.953125 C-42.47237 37.62192074 -43.80185992 28.85306651 -42.09765625 20.4609375 C-39.52026041 11.58493525 -34.51202108 5.89247513 -26.80859375 0.9765625 C-18.4677039 -3.57828865 -8.66721312 -4.22949589 0 0 Z " fill="#F08B5F" transform="translate(541.5625,491.25)"/>
<path d="M0 0 C8.28986773 4.42229003 14.20497467 10.38138458 17.125 19.4375 C17.854042 23.93433428 18.33462134 27.69033641 15.66088867 31.55224609 C11.88892797 34.35643215 8.56384802 33.93879245 3.984375 33.828125 C3.10219299 33.82246521 2.22001099 33.81680542 1.31109619 33.81097412 C-1.50149213 33.78861591 -4.31279795 33.73842132 -7.125 33.6875 C-9.03383574 33.66743425 -10.94269149 33.64918361 -12.8515625 33.6328125 C-17.52653445 33.588753 -22.20054992 33.51972984 -26.875 33.4375 C-26.28163599 34.72447502 -25.6764469 36.00600186 -25.06640625 37.28515625 C-24.73068604 37.99937744 -24.39496582 38.71359863 -24.04907227 39.44946289 C-21.72102687 43.39150358 -18.07486969 45.03754344 -13.875 46.4375 C-7.27119706 47.17664125 -2.20876509 46.18150076 3.80078125 43.41015625 C6.23328213 42.39218529 8.53048745 41.87374547 11.125 41.4375 C12.115 42.7575 13.105 44.0775 14.125 45.4375 C11.63768976 51.02791089 7.10806774 54.7961241 1.5625 57.3125 C-6.352057 59.8993591 -16.12945264 59.55862952 -23.8515625 56.47265625 C-31.86973992 52.3706929 -36.70027247 46.97386622 -39.984375 38.61328125 C-42.19509183 30.73033046 -42.06523629 21.78589006 -38.20703125 14.46484375 C-29.57921973 1.33336522 -15.68103346 -6.36529755 0 0 Z " fill="#F08B5F" transform="translate(772.875,490.5625)"/>
<path d="M0 0 C7.76452069 5.03644586 12.25053621 10.33603814 15.0234375 19.3125 C15.7031613 23.60549241 15.64790383 27.66740788 13.0234375 31.3125 C9.63950742 33.00446504 5.79865959 32.43236549 2.078125 32.41015625 C1.1931131 32.4087413 0.3081012 32.40732635 -0.60372925 32.40586853 C-3.43637441 32.4002614 -6.26894114 32.38770771 -9.1015625 32.375 C-11.01953011 32.36998592 -12.93749896 32.36542285 -14.85546875 32.36132812 C-19.56253032 32.35028966 -24.2695331 32.33302025 -28.9765625 32.3125 C-26.51098227 38.43369485 -24.51806444 41.2887846 -18.7890625 44.5625 C-11.31024577 46.55685113 -5.16299611 45.44770354 1.796875 42.28515625 C3.89143835 41.37016278 5.76898995 40.68421833 8.0234375 40.3125 C9.8359375 41.4375 9.8359375 41.4375 11.0234375 43.3125 C11.17979162 46.20505123 10.56269366 47.7111385 8.6328125 49.86328125 C0.85944821 56.91883488 -6.54445077 58.13174761 -16.6640625 57.7890625 C-24.40323371 57.1782549 -31.12595298 53.65209456 -36.4765625 48.0625 C-42.80530305 39.46814523 -43.95825951 30.80910651 -42.9765625 20.3125 C-41.65428591 11.95683728 -35.19528865 5.48719796 -28.65625 0.56640625 C-20.03925516 -4.45306434 -8.8310293 -4.72739115 0 0 Z " fill="#F08B5F" transform="translate(1106.9765625,491.6875)"/>
<path d="M0 0 C4.05006792 2.86403935 6.95794799 6.66384642 8.80078125 11.2734375 C9.11962891 14.44287109 9.11962891 14.44287109 9.21484375 18.171875 C9.2342099 18.84328522 9.25357605 19.51469543 9.27352905 20.20645142 C9.33306395 22.35365169 9.37940061 24.50091726 9.42578125 26.6484375 C9.46402497 28.05340794 9.50308027 29.45835654 9.54296875 30.86328125 C9.78056181 39.66806498 9.84764232 48.46529138 9.80078125 57.2734375 C6.73669349 57.5145697 3.85495633 57.72026174 0.80078125 57.2734375 C-1.76171875 54.7734375 -1.76171875 54.7734375 -3.19921875 52.2734375 C-4.12927734 52.81484375 -4.12927734 52.81484375 -5.078125 53.3671875 C-13.63552049 57.85141221 -22.0335954 58.73532053 -31.53515625 56.796875 C-36.54566115 54.98084047 -39.86455199 50.94277103 -42.19921875 46.2734375 C-42.82496345 40.36496347 -42.39543031 35.40674697 -39.19921875 30.2734375 C-30.28057706 21.63084901 -15.19999547 18.55311662 -3.19921875 18.2734375 C-4.72477841 13.46220903 -4.72477841 13.46220903 -8.19921875 10.2734375 C-16.21322565 9.67554889 -22.76065485 10.36605702 -30.19921875 13.2734375 C-31.85761749 13.64573109 -33.5212315 14.0027944 -35.19921875 14.2734375 C-39.20442679 7.96220059 -39.20442679 7.96220059 -39.18359375 5.20703125 C-37.65903745 2.21236709 -35.4614478 1.76452167 -32.38671875 0.5859375 C-31.32839844 0.16957031 -30.27007813 -0.24679687 -29.1796875 -0.67578125 C-20.05675697 -3.89212242 -8.75252641 -4.64823436 0 0 Z " fill="#F08C61" transform="translate(842.19921875,491.7265625)"/>
<path d="M0 0 C4.29 0 8.58 0 13 0 C13 27.06 13 54.12 13 82 C28.09364568 81.96039251 28.09364568 81.96039251 43.18725586 81.90991211 C45.07145125 81.90699308 46.95564727 81.90444449 48.83984375 81.90234375 C50.32200378 81.8946698 50.32200378 81.8946698 51.83410645 81.88684082 C52.76791138 81.88671997 53.70171631 81.88659912 54.66381836 81.88647461 C55.47878281 81.884254 56.29374725 81.88203339 57.13340759 81.87974548 C59 82 59 82 60 83 C60.09851171 84.83115883 60.12972629 86.66619933 60.125 88.5 C60.12886719 90.00046875 60.12886719 90.00046875 60.1328125 91.53125 C60 94 60 94 59 95 C57.19490627 95.09899561 55.38593072 95.12799151 53.578125 95.12939453 C52.42022461 95.13254669 51.26232422 95.13569885 50.06933594 95.13894653 C48.17876465 95.13591019 48.17876465 95.13591019 46.25 95.1328125 C44.96641602 95.13376923 43.68283203 95.13472595 42.36035156 95.13571167 C39.63996176 95.13718831 36.91960475 95.13503519 34.19921875 95.13037109 C30.70515331 95.12467381 27.21116467 95.12795299 23.71710205 95.13394356 C20.39472847 95.13841754 17.07237577 95.13528885 13.75 95.1328125 C12.48961914 95.13483673 11.22923828 95.13686096 9.93066406 95.13894653 C8.77276367 95.13579437 7.61486328 95.13264221 6.421875 95.12939453 C5.39674805 95.12859894 4.37162109 95.12780334 3.31542969 95.12698364 C1 95 1 95 0 94 C-0.09525367 91.07805335 -0.12552736 88.17979671 -0.11352539 85.25756836 C-0.11367142 84.3405867 -0.11381744 83.42360504 -0.1139679 82.47883606 C-0.1132684 79.43248164 -0.10547428 76.38618755 -0.09765625 73.33984375 C-0.0957922 71.23377007 -0.09436824 69.12769597 -0.09336853 67.0216217 C-0.08954231 61.46657117 -0.07971114 55.91154659 -0.06866455 50.35650635 C-0.05845267 44.6927526 -0.05387139 39.02899467 -0.04882812 33.36523438 C-0.03808896 22.24347815 -0.0210113 11.12174123 0 0 Z " fill="#F08B5E" transform="translate(398,454)"/>
<path d="M0 0 C6.13518388 3.20577176 9.94063017 6.48438354 13.00634766 12.75048828 C15.43614277 20.80150151 14.55910431 29.54792746 14.375 37.875 C14.3498841 39.85283637 14.32707675 41.83070349 14.30664062 43.80859375 C14.2519103 48.62316282 14.16582007 53.43623854 14.0625 58.25 C12.27116022 58.30391993 10.47936101 58.34275571 8.6875 58.375 C7.68976563 58.39820313 6.69203125 58.42140625 5.6640625 58.4453125 C3.0625 58.25 3.0625 58.25 1.0625 56.25 C0.85310679 53.44307554 0.76137173 50.72686713 0.75390625 47.91796875 C0.72873946 46.21549147 0.70334153 44.51301759 0.67773438 42.81054688 C0.64902213 40.12460258 0.62500853 37.43871762 0.60620117 34.75268555 C0.58450372 32.16162796 0.54505314 29.57127989 0.50390625 26.98046875 C0.50379044 26.18134567 0.50367462 25.3822226 0.5035553 24.55888367 C0.42236358 19.96963618 -0.01026719 17.00213521 -2.9375 13.25 C-6.01082919 11.10520856 -8.86313037 10.86713044 -12.5625 10.75 C-13.52414062 10.6984375 -14.48578125 10.646875 -15.4765625 10.59375 C-21.0620506 11.65284932 -25.26707662 12.66413188 -28.9375 17.25 C-30.7703016 23.76511627 -30.15217793 30.86724951 -30 37.5625 C-29.98440441 40.36514688 -29.98244375 43.16757595 -29.98155212 45.97026062 C-29.97569344 47.71091155 -29.95821662 49.45156821 -29.92823792 51.19197083 C-29.89637303 53.21106482 -29.91198467 55.23081579 -29.9375 57.25 C-30.9375 58.25 -30.9375 58.25 -33.40625 58.3828125 C-34.90671875 58.37894531 -34.90671875 58.37894531 -36.4375 58.375 C-37.4378125 58.37757813 -38.438125 58.38015625 -39.46875 58.3828125 C-41.9375 58.25 -41.9375 58.25 -42.9375 57.25 C-43.03643778 55.47553991 -43.06549092 53.69713749 -43.06689453 51.91992188 C-43.07004669 50.78204224 -43.07319885 49.6441626 -43.07644653 48.47180176 C-43.0744223 47.23329468 -43.07239807 45.9947876 -43.0703125 44.71875 C-43.07126923 43.45736206 -43.07222595 42.19597412 -43.07321167 40.8963623 C-43.07389375 38.22302862 -43.07253529 35.54978563 -43.06787109 32.87646484 C-43.06217381 29.44293309 -43.06545301 26.0094795 -43.07144356 22.57595062 C-43.07591762 19.31104757 -43.07278883 16.04615407 -43.0703125 12.78125 C-43.07233673 11.54274292 -43.07436096 10.30423584 -43.07644653 9.02819824 C-43.07329437 7.8903186 -43.07014221 6.75243896 -43.06689453 5.58007812 C-43.06609894 4.57271606 -43.06530334 3.565354 -43.06448364 2.52746582 C-42.9375 0.25 -42.9375 0.25 -41.9375 -0.75 C-39.7578125 -1.0234375 -39.7578125 -1.0234375 -37.0625 -1.125 C-36.17820312 -1.17398437 -35.29390625 -1.22296875 -34.3828125 -1.2734375 C-31.9375 -0.75 -31.9375 -0.75 -30.1171875 1.7734375 C-29.72789062 2.59070313 -29.33859375 3.40796875 -28.9375 4.25 C-28.21046875 3.816875 -27.4834375 3.38375 -26.734375 2.9375 C-17.72852824 -2.05035359 -9.80416469 -4.05801519 0 0 Z " fill="#F08C61" transform="translate(1038.9375,490.75)"/>
<path d="M0 0 C6.43880359 3.33562568 9.88562099 6.78278202 13.0625 13.25 C14.38154179 17.94057881 14.18951854 22.6575395 14.16015625 27.48828125 C14.1587413 28.36904831 14.15732635 29.24981537 14.15586853 30.15727234 C14.15028937 32.95905003 14.13774071 35.76074662 14.125 38.5625 C14.11998231 40.46679572 14.11541987 42.37109269 14.11132812 44.27539062 C14.10032677 48.93362481 14.08307649 53.59179867 14.0625 58.25 C12.27116022 58.30391993 10.47936101 58.34275571 8.6875 58.375 C7.68976562 58.39820313 6.69203125 58.42140625 5.6640625 58.4453125 C3.0625 58.25 3.0625 58.25 1.0625 56.25 C0.84086916 53.44324146 0.73716343 50.72754563 0.71875 47.91796875 C0.7041272 47.08920731 0.68950439 46.26044586 0.67443848 45.40657043 C0.62784892 42.75026285 0.59371657 40.0940301 0.5625 37.4375 C0.52129116 33.95154879 0.46753911 30.46611821 0.40625 26.98046875 C0.4009729 26.18134567 0.3956958 25.3822226 0.39025879 24.55888367 C0.31617342 20.39489127 0.12103811 16.98802529 -1.9375 13.25 C-5.40927785 11.29002903 -8.67557716 10.87655026 -12.625 10.75 C-13.57761719 10.6984375 -14.53023437 10.646875 -15.51171875 10.59375 C-21.08133662 11.66067794 -25.27421457 12.67789573 -28.9375 17.25 C-30.77107756 23.76462666 -30.15217074 30.86756604 -30 37.5625 C-29.98440441 40.36514688 -29.98244375 43.16757595 -29.98155212 45.97026062 C-29.97569344 47.71091155 -29.95821662 49.45156821 -29.92823792 51.19197083 C-29.89637303 53.21106482 -29.91198467 55.23081579 -29.9375 57.25 C-30.9375 58.25 -30.9375 58.25 -33.40625 58.3828125 C-34.90671875 58.37894531 -34.90671875 58.37894531 -36.4375 58.375 C-37.4378125 58.37757813 -38.438125 58.38015625 -39.46875 58.3828125 C-41.9375 58.25 -41.9375 58.25 -42.9375 57.25 C-43.03643778 55.47553991 -43.06549092 53.69713749 -43.06689453 51.91992188 C-43.07004669 50.78204224 -43.07319885 49.6441626 -43.07644653 48.47180176 C-43.0744223 47.23329468 -43.07239807 45.9947876 -43.0703125 44.71875 C-43.07126923 43.45736206 -43.07222595 42.19597412 -43.07321167 40.8963623 C-43.07389375 38.22302862 -43.07253529 35.54978563 -43.06787109 32.87646484 C-43.06217381 29.44293309 -43.06545301 26.0094795 -43.07144356 22.57595062 C-43.07591762 19.31104757 -43.07278883 16.04615407 -43.0703125 12.78125 C-43.07233673 11.54274292 -43.07436096 10.30423584 -43.07644653 9.02819824 C-43.07329437 7.8903186 -43.07014221 6.75243896 -43.06689453 5.58007812 C-43.06609894 4.57271606 -43.06530334 3.565354 -43.06448364 2.52746582 C-42.9375 0.25 -42.9375 0.25 -41.9375 -0.75 C-39.7578125 -1.0234375 -39.7578125 -1.0234375 -37.0625 -1.125 C-36.17820312 -1.17398437 -35.29390625 -1.22296875 -34.3828125 -1.2734375 C-31.9375 -0.75 -31.9375 -0.75 -30.1171875 1.7734375 C-29.72789062 2.59070313 -29.33859375 3.40796875 -28.9375 4.25 C-28.21046875 3.816875 -27.4834375 3.38375 -26.734375 2.9375 C-17.72852824 -2.05035359 -9.80416469 -4.05801519 0 0 Z " fill="#F08C61" transform="translate(610.9375,490.75)"/>
<path d="M0 0 C6.60927213 6.4590614 9.7471013 13.67266307 10.0625 22.9375 C9.91724046 30.47024448 8.39390622 38.56598725 3.75 44.6875 C3.42 44.6875 3.09 44.6875 2.75 44.6875 C2.50765625 43.841875 2.2653125 42.99625 2.015625 42.125 C-2.59253384 26.5281547 -7.85039276 17.82824712 -22.25 9.6875 C-32.21770507 4.52565273 -42.94029638 4.40195688 -53.9375 4.5625 C-55.72317383 4.57603516 -55.72317383 4.57603516 -57.54492188 4.58984375 C-60.44683367 4.61315228 -63.34830317 4.64586877 -66.25 4.6875 C-47.01144687 -14.67867205 -21.9542509 -15.62129391 0 0 Z " fill="#F08C60" transform="translate(339.25,457.3125)"/>
<path d="M0 0 C4.29 0 8.58 0 13 0 C13.02312166 12.23880329 13.04091418 24.47760143 13.05181217 36.71642208 C13.05704139 42.39876512 13.06413973 48.08109327 13.07543945 53.76342773 C13.08626696 59.24229136 13.09227654 64.72114062 13.09487724 70.20001411 C13.09673174 72.29529611 13.10035282 74.39057728 13.10573006 76.4858532 C13.11293868 79.40977584 13.11399102 82.33363833 13.11352539 85.25756836 C13.11712067 86.1329425 13.12071594 87.00831665 13.12442017 87.91021729 C13.11405216 93.88594784 13.11405216 93.88594784 12 95 C10.35769636 95.1245486 8.70947724 95.17568524 7.0625 95.1875 C6.16660156 95.20167969 5.27070312 95.21585938 4.34765625 95.23046875 C2 95 2 95 0 93 C-0.18831473 90.04725086 -0.25167271 87.18897147 -0.22705078 84.23583984 C-0.22734283 83.32846573 -0.22763489 82.42109161 -0.22793579 81.48622131 C-0.22653898 78.47769714 -0.21096128 75.46941858 -0.1953125 72.4609375 C-0.19158362 70.37871435 -0.18873606 68.29648945 -0.18673706 66.21426392 C-0.17909077 60.72659483 -0.15943375 55.23903116 -0.1373291 49.75140381 C-0.11689209 44.15459621 -0.10773994 38.55777163 -0.09765625 32.9609375 C-0.07618879 21.97391195 -0.04204086 10.98696473 0 0 Z " fill="#F08C60" transform="translate(937,454)"/>
<path d="M0 0 C3.3 1.65 6.6 3.3 10 5 C10 14.24 10 23.48 10 33 C1.99331085 36.00250843 -3.61859899 37.21440727 -12 36 C-16.44855669 33.91612461 -18.46726316 30.89362308 -20.9375 26.75 C-22.488548 21.27571293 -23.29714902 16.11209005 -21.05078125 10.72265625 C-15.86322988 1.9349115 -9.95193142 -0.75584289 0 0 Z " fill="#FEFCFB" transform="translate(898,501)"/>
<path d="M0 0 C2.20826307 3.3123946 2.26778419 4.46465138 2.34375 8.33203125 C2.37339844 9.37810547 2.40304688 10.42417969 2.43359375 11.50195312 C2.45550781 12.59443359 2.47742188 13.68691406 2.5 14.8125 C2.53382409 24.11467763 2.53382409 24.11467763 5 33 C4.154375 32.95359375 3.30875 32.9071875 2.4375 32.859375 C1.303125 32.82328125 0.16875 32.7871875 -1 32.75 C-2.11375 32.70359375 -3.2275 32.6571875 -4.375 32.609375 C-12.41951998 33.47624138 -17.38384062 37.85090668 -22.6875 43.625 C-29.1650353 50.61858151 -29.1650353 50.61858151 -34 52 C-33.93039063 53.03640625 -33.86078125 54.0728125 -33.7890625 55.140625 C-33.73277236 56.51035174 -33.67817352 57.88014873 -33.625 59.25 C-33.54958984 60.27287109 -33.54958984 60.27287109 -33.47265625 61.31640625 C-33.4140625 63.328125 -33.4140625 63.328125 -34 67 C-37.0234375 69.484375 -37.0234375 69.484375 -40 71 C-39.86722656 70.40574219 -39.73445312 69.81148438 -39.59765625 69.19921875 C-38.58954506 64.4677188 -37.96134502 60.091963 -37.875 55.25 C-37.62941117 52.13189897 -37.48406073 50.55168686 -35.40625 48.18359375 C-33.33362302 46.65702427 -31.20140371 45.3325311 -29 44 C-27.66418283 42.96696806 -26.34987729 41.90530474 -25.0625 40.8125 C-24.49660156 40.34457031 -23.93070313 39.87664062 -23.34765625 39.39453125 C-21.7359563 37.92763748 -21.7359563 37.92763748 -21 35 C-25.26010789 34.18916376 -29.2901519 33.86484813 -33.625 33.875 C-34.73101562 33.87242187 -35.83703125 33.86984375 -36.9765625 33.8671875 C-39.5118155 33.9785552 -41.58917487 34.25911228 -44 35 C-43.3886636 31.48854338 -42.99428609 30.99490716 -40.125 28.4375 C-33.6568785 24.125419 -25.70300194 22.37118351 -18 23 C-16.66216607 23.31478446 -15.32758141 23.64444904 -14 24 C-14.0928125 23.23816406 -14.185625 22.47632813 -14.28125 21.69140625 C-14.71232504 15.52549356 -14.52618937 11.72004897 -10.375 6.9375 C-7.1611422 3.78082828 -4.21029694 1.57886135 0 0 Z " fill="#F08F64" transform="translate(253,427)"/>
<path d="M0 0 C4.29 0 8.58 0 13 0 C13.02255549 7.54498589 13.04091769 15.08995931 13.05181217 22.63497066 C13.05703989 26.13808885 13.0641355 29.64118285 13.07543945 33.14428711 C13.08834206 37.16780841 13.09322912 41.19130414 13.09765625 45.21484375 C13.10281754 46.47836166 13.10797882 47.74187958 13.11329651 49.04368591 C13.11337204 50.204814 13.11344757 51.36594208 13.11352539 52.56225586 C13.115746 53.59039902 13.11796661 54.61854218 13.12025452 55.67784119 C13 58 13 58 12 59 C10.0390625 59.203125 10.0390625 59.203125 7.625 59.25 C6.83351563 59.27578125 6.04203125 59.3015625 5.2265625 59.328125 C2.40106915 58.91173651 1.71449985 58.26023848 0 56 C-0.36076355 53.51325989 -0.36076355 53.51325989 -0.34057617 50.51879883 C-0.34034958 49.39786331 -0.34012299 48.2769278 -0.33988953 47.12202454 C-0.32440567 45.91257675 -0.30892181 44.70312897 -0.29296875 43.45703125 C-0.28872391 42.21829758 -0.28447906 40.9795639 -0.28010559 39.70329285 C-0.26614733 36.41350999 -0.23920213 33.12416797 -0.20599365 29.83453369 C-0.17527933 26.47633254 -0.16159739 23.11806682 -0.14648438 19.75976562 C-0.11337348 13.17298198 -0.06156859 6.58657665 0 0 Z " fill="#F08C60" transform="translate(473,490)"/>
<path d="M0 0 C3.96 0 7.92 0 12 0 C12 19.47 12 38.94 12 59 C8.7 59 5.4 59 2 59 C-1 56 -1 56 -1.36749268 53.55795288 C-1.36384705 52.59056183 -1.36020142 51.62317078 -1.35644531 50.62646484 C-1.35944641 49.52877777 -1.36244751 48.4310907 -1.36553955 47.30014038 C-1.35319275 46.11570343 -1.34084595 44.93126648 -1.328125 43.7109375 C-1.32531525 41.88968857 -1.32531525 41.88968857 -1.32244873 40.03164673 C-1.3157227 37.46442927 -1.30179743 34.89722216 -1.28125 32.33007812 C-1.25007126 28.38401859 -1.24027802 24.43835803 -1.234375 20.4921875 C-1.22520643 18.00259926 -1.21483112 15.5130151 -1.203125 13.0234375 C-1.19887512 11.83495209 -1.19462524 10.64646667 -1.19024658 9.42196655 C-1.18063904 8.3305838 -1.17103149 7.23920105 -1.16113281 6.11474609 C-1.15089081 4.6660463 -1.15089081 4.6660463 -1.14044189 3.18807983 C-1 1 -1 1 0 0 Z " fill="#F08C60" transform="translate(968,490)"/>
<path d="M0 0 C0.99 0 1.98 0 3 0 C3 0.66 3 1.32 3 2 C3.5775 2.20625 4.155 2.4125 4.75 2.625 C9.0908813 5.27776079 11.47725523 9.88832239 12.6875 14.76171875 C14.13521986 25.13101222 13.47394279 36.41297974 9 46 C8.34 46 7.68 46 7 46 C7 46.66 7 47.32 7 48 C6.24976563 47.96519531 5.49953125 47.93039062 4.7265625 47.89453125 C-2.79569229 47.69557993 -10.82230494 47.48969606 -16.8828125 52.58203125 C-19.73477817 55.74399319 -21.75328742 58.8858485 -23 63 C-25.87354273 61.00820189 -26.05248778 59.72745653 -26.73046875 56.20703125 C-26.89601295 54.74362053 -27.04793087 53.27861606 -27.1875 51.8125 C-27.26935547 51.06291016 -27.35121094 50.31332031 -27.43554688 49.54101562 C-27.63540784 47.69524082 -27.81926538 45.84774567 -28 44 C-27.24976563 44.03480469 -26.49953125 44.06960938 -25.7265625 44.10546875 C-16.5931089 44.34703364 -8.93407656 43.66215755 -1.5625 37.875 C4.19003507 32.29678418 5.13508843 26.36105289 5.4375 18.5625 C5.30652911 12.36321129 3.77710817 7.49845111 1 2 C0.67 1.34 0.34 0.68 0 0 Z " fill="#F08F64" transform="translate(272,474)"/>
<path d="M0 0 C2.23606459 2.16974064 4.22456415 4.43772326 6 7 C6 7.33 6 7.66 6 8 C4.85144531 8.09796875 3.70289063 8.1959375 2.51953125 8.296875 C-16.62852249 10.0761647 -32.23817194 15.11529848 -46 29 C-46.21278058 24.53160785 -45.59138085 21.17737474 -44 17 C-43.34 17 -42.68 17 -42 17 C-41.61328125 15.88431641 -41.61328125 15.88431641 -41.21875 14.74609375 C-37.72338714 6.87032423 -29.5213416 1.64090421 -22 -2 C-13.87886331 -4.99502913 -7.16662781 -4.91994687 0 0 Z " fill="#F08C60" transform="translate(315,431)"/>
<path d="M0 0 C-0.33 0.66 -0.66 1.32 -1 2 C-1.52383318 7.25550671 -1.61997842 11.66466186 0.625 16.5 C4.30400281 20.37263454 7.67561904 22.13113522 13 22.375 C16.89277502 22.24102304 19.60022092 20.89755111 23 19 C23.99 19 24.98 19 26 19 C25.51421457 22.12290635 25.0013988 24.99580359 24 28 C20.37 27.67 16.74 27.34 13 27 C14.81713042 31.54282604 15.720469 32.8297867 19 36 C19 36.66 19 37.32 19 38 C23.57478244 35.9785845 26.61831569 33.68006822 30 30 C31.62849969 34.35590568 32.34118446 38.23934612 32.625 42.875 C32.69976562 44.02742187 32.77453125 45.17984375 32.8515625 46.3671875 C32.90054688 47.23601563 32.94953125 48.10484375 33 49 C17.18009684 43.06753631 5.02134365 30.16099958 -5 17 C-5.85001456 15.90475707 -6.70028358 14.80971157 -7.55078125 13.71484375 C-14 5.32046539 -14 5.32046539 -14 3 C-12.42274653 2.29866401 -10.83788667 1.614417 -9.25 0.9375 C-7.92742187 0.36322266 -7.92742187 0.36322266 -6.578125 -0.22265625 C-3.84743691 -1.04600008 -2.63098653 -0.9773992 0 0 Z " fill="#F09167" transform="translate(213,515)"/>
<path d="M0 0 C0.61875 0.33 1.2375 0.66 1.875 1 C-0.74718769 3.63664829 -3.38184732 6.25482064 -6.0625 8.83203125 C-15.04884682 17.53031702 -20.17151719 24.9849461 -24.125 37 C-24.785 37 -25.445 37 -26.125 37 C-30.03157961 27.51259238 -31.41529761 20.87089283 -28.125 11 C-27.465 11 -26.805 11 -26.125 11 C-25.96 10.29875 -25.795 9.5975 -25.625 8.875 C-20.69583572 -0.57256486 -9.63501076 -3.08320344 0 0 Z " fill="#F08E63" transform="translate(288.125,422)"/>
<path d="M0 0 C0 4.29 0 8.58 0 13 C-7.07016287 17.21490479 -12.63213701 18.98527077 -21 18 C-23.6875 16.375 -23.6875 16.375 -25 14 C-25.125 11 -25.125 11 -24 8 C-19.49520474 4.39065334 -15.25383803 2.97979531 -9.75 1.75 C-9.03070312 1.57726562 -8.31140625 1.40453125 -7.5703125 1.2265625 C-2.37202381 0 -2.37202381 0 0 0 Z " fill="#FEFDFC" transform="translate(838,521)"/>
<path d="M0 0 C4.33541041 2.22830772 6.74377219 5.05954172 9.00390625 9.30859375 C9.00390625 10.29859375 9.00390625 11.28859375 9.00390625 12.30859375 C-1.22609375 12.30859375 -11.45609375 12.30859375 -21.99609375 12.30859375 C-20.75871083 6.12167917 -18.5018514 4.32712075 -13.74609375 0.49609375 C-9.21371163 -1.46107126 -4.69355335 -1.62575136 0 0 Z " fill="#FEFCFB" transform="translate(534.99609375,501.69140625)"/>
<path d="M0 0 C5.24883751 1.81690529 7.90424948 4.53847719 11 9 C11 10.32 11 11.64 11 13 C1.1 13 -8.8 13 -19 13 C-17.87355865 6.24135189 -17.87355865 6.24135189 -14.5625 3.6875 C-13.63630859 2.95080078 -13.63630859 2.95080078 -12.69140625 2.19921875 C-8.64935726 -0.66662199 -4.81423614 -0.4391364 0 0 Z " fill="#FEFCFC" transform="translate(1097,501)"/>
<path d="M0 0 C3.43449086 2.34169831 5.37416935 4.45100877 7.75 7.875 C7.75 9.195 7.75 10.515 7.75 11.875 C-2.15 11.875 -12.05 11.875 -22.25 11.875 C-21.1006924 6.12846201 -19.50208645 3.74101448 -15.0625 0.0625 C-9.95203126 -2.09525347 -5.19084588 -1.79683127 0 0 Z " fill="#FEFDFC" transform="translate(768.25,502.125)"/>
<path d="M0 0 C2.5 1.5625 2.5 1.5625 4 4 C4 7.77684879 3.78395245 10.03513544 1.375 13 C-2.07663304 14.45331917 -4.42809484 13.92604949 -8 13 C-10.46324069 9.30513897 -10.38991688 7.36706908 -10 3 C-7.7773391 -1.05308751 -4.20075589 -0.5158823 0 0 Z " fill="#F08E63" transform="translate(977,454)"/>
<path d="M0 0 C2.5 1.5625 2.5 1.5625 4 4 C4 7.77684879 3.78395245 10.03513544 1.375 13 C-2.07663304 14.45331917 -4.42809484 13.92604949 -8 13 C-10.46324069 9.30513897 -10.38991688 7.36706908 -10 3 C-7.7773391 -1.05308751 -4.20075589 -0.5158823 0 0 Z " fill="#F08F64" transform="translate(483,454)"/>
<path d="M0 0 C1.93166016 0.01740234 1.93166016 0.01740234 3.90234375 0.03515625 C5.19269531 0.04417969 6.48304688 0.05320312 7.8125 0.0625 C8.81152344 0.07410156 9.81054688 0.08570313 10.83984375 0.09765625 C10.15921875 0.75765625 9.47859375 1.41765625 8.77734375 2.09765625 C5.77974162 5.06956464 3.09197356 8.28301717 0.390625 11.5234375 C-0.12113281 12.04292969 -0.63289062 12.56242187 -1.16015625 13.09765625 C-1.82015625 13.09765625 -2.48015625 13.09765625 -3.16015625 13.09765625 C-3.35413101 11.11911367 -3.54016946 9.13979145 -3.72265625 7.16015625 C-3.82707031 6.05800781 -3.93148437 4.95585937 -4.0390625 3.8203125 C-4.07902344 2.92183594 -4.11898437 2.02335937 -4.16015625 1.09765625 C-3.16015625 0.09765625 -3.16015625 0.09765625 0 0 Z " fill="#F1946C" transform="translate(234.16015625,478.90234375)"/>
</svg>
